<mxfile host="app.diagrams.net" modified="2023-11-03T08:31:39.027Z" agent="Mozilla/5.0 (Windows NT 10.0; Win64; x64) AppleWebKit/537.36 (KHTML, like Gecko) Chrome/118.0.0.0 Safari/537.36 Edg/118.0.2088.69" etag="BgKanCdeCyIyRHStx4wZ" version="22.0.8" type="device">
  <diagram name="Page-1" id="SGApWt4OfTAIV2yzhkMB">
    <mxGraphModel dx="1290" dy="-381" grid="1" gridSize="10" guides="1" tooltips="1" connect="1" arrows="1" fold="1" page="1" pageScale="1" pageWidth="850" pageHeight="1100" math="0" shadow="0">
      <root>
        <mxCell id="0" />
        <mxCell id="1" parent="0" />
        <mxCell id="3riqx6xXga8HZ3FoCGB3-1" value="" style="html=1;points=[];perimeter=orthogonalPerimeter;fontSize=14;fillColor=#FFFFFF;" vertex="1" parent="1">
          <mxGeometry x="445" y="1250" width="10" height="340" as="geometry" />
        </mxCell>
        <mxCell id="3riqx6xXga8HZ3FoCGB3-2" value="" style="shape=umlLifeline;participant=umlActor;perimeter=lifelinePerimeter;whiteSpace=wrap;html=1;container=1;collapsible=0;recursiveResize=0;verticalAlign=top;spacingTop=36;outlineConnect=0;fontSize=14;fillColor=#FFFFFF;" vertex="1" parent="1">
          <mxGeometry x="440" y="1190" width="20" height="60" as="geometry" />
        </mxCell>
        <mxCell id="3riqx6xXga8HZ3FoCGB3-3" value="" style="html=1;points=[];perimeter=orthogonalPerimeter;fontSize=14;fillColor=#FFFFFF;" vertex="1" parent="1">
          <mxGeometry x="607.67" y="1280" width="10" height="270" as="geometry" />
        </mxCell>
        <mxCell id="3riqx6xXga8HZ3FoCGB3-4" value="Открытие веб-сайта" style="html=1;verticalAlign=bottom;endArrow=open;entryX=0;entryY=0;rounded=0;fontSize=12;endFill=0;" edge="1" parent="1" target="3riqx6xXga8HZ3FoCGB3-3">
          <mxGeometry relative="1" as="geometry">
            <mxPoint x="454.9966666666665" y="1280" as="sourcePoint" />
          </mxGeometry>
        </mxCell>
        <mxCell id="3riqx6xXga8HZ3FoCGB3-5" value="&lt;font style=&quot;font-size: 12px;&quot;&gt;Клиентское приложение&lt;/font&gt;" style="html=1;fontSize=14;fillColor=#FFFFFF;" vertex="1" parent="1">
          <mxGeometry x="535.33" y="1190" width="154.67" height="40" as="geometry" />
        </mxCell>
        <mxCell id="3riqx6xXga8HZ3FoCGB3-6" value="" style="html=1;verticalAlign=bottom;endArrow=none;dashed=1;endSize=8;rounded=0;fontSize=14;exitX=0.5;exitY=1;exitDx=0;exitDy=0;endFill=0;entryX=0.495;entryY=-0.008;entryDx=0;entryDy=0;entryPerimeter=0;" edge="1" parent="1" source="3riqx6xXga8HZ3FoCGB3-5" target="3riqx6xXga8HZ3FoCGB3-3">
          <mxGeometry relative="1" as="geometry">
            <mxPoint x="650" y="1390" as="sourcePoint" />
            <mxPoint x="625" y="1250" as="targetPoint" />
          </mxGeometry>
        </mxCell>
        <mxCell id="3riqx6xXga8HZ3FoCGB3-7" value="&lt;font style=&quot;font-size: 12px;&quot;&gt;Бизнес логика&lt;/font&gt;" style="html=1;fontSize=14;fillColor=#FFFFFF;" vertex="1" parent="1">
          <mxGeometry x="715" y="1190" width="105" height="40" as="geometry" />
        </mxCell>
        <mxCell id="3riqx6xXga8HZ3FoCGB3-8" value="" style="html=1;verticalAlign=bottom;endArrow=none;dashed=1;endSize=8;rounded=0;fontSize=14;exitX=0.5;exitY=1;exitDx=0;exitDy=0;endFill=0;" edge="1" parent="1" source="3riqx6xXga8HZ3FoCGB3-7" target="3riqx6xXga8HZ3FoCGB3-10">
          <mxGeometry relative="1" as="geometry">
            <mxPoint x="640.3299999999999" y="1240" as="sourcePoint" />
            <mxPoint x="768" y="1270" as="targetPoint" />
          </mxGeometry>
        </mxCell>
        <mxCell id="3riqx6xXga8HZ3FoCGB3-9" value="Ввод регистрационных данных" style="html=1;verticalAlign=bottom;endArrow=open;entryX=0;entryY=0;rounded=0;fontSize=12;endFill=0;" edge="1" parent="1">
          <mxGeometry relative="1" as="geometry">
            <mxPoint x="454.99666666666644" y="1330" as="sourcePoint" />
            <mxPoint x="607.6700000000001" y="1330" as="targetPoint" />
          </mxGeometry>
        </mxCell>
        <mxCell id="3riqx6xXga8HZ3FoCGB3-10" value="" style="html=1;points=[];perimeter=orthogonalPerimeter;fontSize=14;fillColor=#FFFFFF;" vertex="1" parent="1">
          <mxGeometry x="762.5" y="1390" width="10" height="130" as="geometry" />
        </mxCell>
        <mxCell id="3riqx6xXga8HZ3FoCGB3-11" value="Передача данных" style="html=1;verticalAlign=bottom;endArrow=open;rounded=0;fontSize=12;endFill=0;" edge="1" parent="1">
          <mxGeometry relative="1" as="geometry">
            <mxPoint x="620.1666666666664" y="1390" as="sourcePoint" />
            <mxPoint x="762.5" y="1390" as="targetPoint" />
          </mxGeometry>
        </mxCell>
        <mxCell id="3riqx6xXga8HZ3FoCGB3-12" value="&lt;font style=&quot;font-size: 12px;&quot;&gt;Транзакция&lt;/font&gt;" style="html=1;fontSize=14;fillColor=#FFFFFF;" vertex="1" parent="1">
          <mxGeometry x="860" y="1190" width="105" height="40" as="geometry" />
        </mxCell>
        <mxCell id="3riqx6xXga8HZ3FoCGB3-13" value="" style="html=1;verticalAlign=bottom;endArrow=none;dashed=1;endSize=8;rounded=0;fontSize=14;exitX=0.5;exitY=1;exitDx=0;exitDy=0;endFill=0;" edge="1" parent="1" source="3riqx6xXga8HZ3FoCGB3-12" target="3riqx6xXga8HZ3FoCGB3-14">
          <mxGeometry relative="1" as="geometry">
            <mxPoint x="785.3299999999999" y="1240" as="sourcePoint" />
            <mxPoint x="913" y="1270" as="targetPoint" />
          </mxGeometry>
        </mxCell>
        <mxCell id="3riqx6xXga8HZ3FoCGB3-14" value="" style="html=1;points=[];perimeter=orthogonalPerimeter;fontSize=14;fillColor=#FFFFFF;" vertex="1" parent="1">
          <mxGeometry x="907.5" y="1470" width="10" height="30" as="geometry" />
        </mxCell>
        <mxCell id="3riqx6xXga8HZ3FoCGB3-15" value="Запрос к бд" style="html=1;verticalAlign=bottom;endArrow=open;rounded=0;fontSize=12;entryX=-0.198;entryY=0.613;entryDx=0;entryDy=0;entryPerimeter=0;endFill=0;" edge="1" parent="1">
          <mxGeometry relative="1" as="geometry">
            <mxPoint x="772.4966666666666" y="1471" as="sourcePoint" />
            <mxPoint x="905.52" y="1471.3400000000001" as="targetPoint" />
          </mxGeometry>
        </mxCell>
        <mxCell id="3riqx6xXga8HZ3FoCGB3-16" value="" style="endArrow=open;html=1;rounded=0;fontSize=12;dashed=1;endFill=0;entryX=1.118;entryY=0.943;entryDx=0;entryDy=0;entryPerimeter=0;exitX=-0.198;exitY=0.98;exitDx=0;exitDy=0;exitPerimeter=0;" edge="1" parent="1">
          <mxGeometry width="50" height="50" relative="1" as="geometry">
            <mxPoint x="905.52" y="1498.8" as="sourcePoint" />
            <mxPoint x="773.6800000000001" y="1499.01" as="targetPoint" />
          </mxGeometry>
        </mxCell>
        <mxCell id="3riqx6xXga8HZ3FoCGB3-17" value="&lt;span style=&quot;color: rgb(0, 0, 0); font-family: Helvetica; font-size: 12px; font-style: normal; font-variant-ligatures: normal; font-variant-caps: normal; font-weight: 400; letter-spacing: normal; orphans: 2; text-align: center; text-indent: 0px; text-transform: none; widows: 2; word-spacing: 0px; -webkit-text-stroke-width: 0px; background-color: rgb(255, 255, 255); text-decoration-thickness: initial; text-decoration-style: initial; text-decoration-color: initial; float: none; display: inline !important;&quot;&gt;Ответ&lt;/span&gt;" style="text;whiteSpace=wrap;html=1;fontSize=12;" vertex="1" parent="1">
          <mxGeometry x="810" y="1473" width="100" height="40" as="geometry" />
        </mxCell>
        <mxCell id="3riqx6xXga8HZ3FoCGB3-18" value="Валидация" style="edgeStyle=orthogonalEdgeStyle;html=1;align=left;spacingLeft=2;endArrow=block;rounded=0;fontSize=14;entryX=1.173;entryY=0.192;entryDx=0;entryDy=0;entryPerimeter=0;" edge="1" parent="1">
          <mxGeometry relative="1" as="geometry">
            <mxPoint x="772.5" y="1398" as="sourcePoint" />
            <Array as="points">
              <mxPoint x="803" y="1398" />
              <mxPoint x="803" y="1419" />
            </Array>
            <mxPoint x="774.23" y="1419.12" as="targetPoint" />
          </mxGeometry>
        </mxCell>
        <mxCell id="3riqx6xXga8HZ3FoCGB3-19" value="" style="endArrow=open;html=1;rounded=0;fontSize=12;dashed=1;endFill=0;exitX=-0.198;exitY=0.98;exitDx=0;exitDy=0;exitPerimeter=0;" edge="1" parent="1">
          <mxGeometry width="50" height="50" relative="1" as="geometry">
            <mxPoint x="762.4999999999998" y="1519" as="sourcePoint" />
            <mxPoint x="620" y="1519" as="targetPoint" />
          </mxGeometry>
        </mxCell>
        <mxCell id="3riqx6xXga8HZ3FoCGB3-20" value="" style="html=1;verticalAlign=bottom;endArrow=none;dashed=1;endSize=8;rounded=0;fontSize=14;exitX=0.5;exitY=1;exitDx=0;exitDy=0;endFill=0;" edge="1" parent="1">
          <mxGeometry relative="1" as="geometry">
            <mxPoint x="767.08" y="1520" as="sourcePoint" />
            <mxPoint x="767" y="1640" as="targetPoint" />
          </mxGeometry>
        </mxCell>
        <mxCell id="3riqx6xXga8HZ3FoCGB3-21" value="" style="html=1;verticalAlign=bottom;endArrow=none;dashed=1;endSize=8;rounded=0;fontSize=14;exitX=1.023;exitY=0.678;exitDx=0;exitDy=0;endFill=0;exitPerimeter=0;" edge="1" parent="1" source="3riqx6xXga8HZ3FoCGB3-17">
          <mxGeometry relative="1" as="geometry">
            <mxPoint x="912.16" y="1590" as="sourcePoint" />
            <mxPoint x="912" y="1640" as="targetPoint" />
          </mxGeometry>
        </mxCell>
        <mxCell id="3riqx6xXga8HZ3FoCGB3-22" value="" style="html=1;verticalAlign=bottom;endArrow=none;dashed=1;endSize=8;rounded=0;fontSize=14;endFill=0;" edge="1" parent="1">
          <mxGeometry relative="1" as="geometry">
            <mxPoint x="450" y="1590" as="sourcePoint" />
            <mxPoint x="450" y="1640" as="targetPoint" />
          </mxGeometry>
        </mxCell>
        <mxCell id="3riqx6xXga8HZ3FoCGB3-23" value="&lt;span style=&quot;color: rgb(0, 0, 0); font-family: Helvetica; font-size: 12px; font-style: normal; font-variant-ligatures: normal; font-variant-caps: normal; font-weight: 400; letter-spacing: normal; orphans: 2; text-align: center; text-indent: 0px; text-transform: none; widows: 2; word-spacing: 0px; -webkit-text-stroke-width: 0px; background-color: rgb(255, 255, 255); text-decoration-thickness: initial; text-decoration-style: initial; text-decoration-color: initial; float: none; display: inline !important;&quot;&gt;Выполнение операции&lt;/span&gt;" style="text;whiteSpace=wrap;html=1;fontSize=12;" vertex="1" parent="1">
          <mxGeometry x="627" y="1494" width="150" height="40" as="geometry" />
        </mxCell>
        <mxCell id="3riqx6xXga8HZ3FoCGB3-24" value="" style="html=1;verticalAlign=bottom;endArrow=none;dashed=1;endSize=8;rounded=0;fontSize=14;endFill=0;" edge="1" parent="1">
          <mxGeometry relative="1" as="geometry">
            <mxPoint x="612.16" y="1550" as="sourcePoint" />
            <mxPoint x="612" y="1640" as="targetPoint" />
          </mxGeometry>
        </mxCell>
        <mxCell id="3riqx6xXga8HZ3FoCGB3-25" value="Sequence Diagram регистрации" style="text;align=center;fontStyle=1;verticalAlign=middle;spacingLeft=3;spacingRight=3;strokeColor=none;rotatable=0;points=[[0,0.5],[1,0.5]];portConstraint=eastwest;fontSize=12;fillColor=#FFFFFF;" vertex="1" parent="1">
          <mxGeometry x="490" y="1134" width="403" height="26" as="geometry" />
        </mxCell>
        <mxCell id="3riqx6xXga8HZ3FoCGB3-27" value="Валидация" style="edgeStyle=orthogonalEdgeStyle;html=1;align=left;spacingLeft=2;endArrow=block;rounded=0;fontSize=14;entryX=1.173;entryY=0.192;entryDx=0;entryDy=0;entryPerimeter=0;" edge="1" parent="1">
          <mxGeometry relative="1" as="geometry">
            <mxPoint x="617.67" y="1330" as="sourcePoint" />
            <Array as="points">
              <mxPoint x="648.17" y="1330" />
              <mxPoint x="648.17" y="1351" />
            </Array>
            <mxPoint x="619.4" y="1351.12" as="targetPoint" />
          </mxGeometry>
        </mxCell>
      </root>
    </mxGraphModel>
  </diagram>
</mxfile>
